<?xml version="1.0" encoding="UTF-8"?>
<svg xmlns="http://www.w3.org/2000/svg" xmlns:xlink="http://www.w3.org/1999/xlink" width="2078.774780273437" height="2483.098632812499"><defs><style type="text/css"><![CDATA[@import url("https://atlas.mindmup.com/_resources/18/fonts.css")]]></style></defs><rect width="100%" height="100%" fill="#FFFFFF"/><g transform="translate(3578.062805175783,803.4394531250019)" style="fill:none;"><g transform="translate(-2213,-26)"><path d="M65,57Q65,414 150,370" stroke="#707070" stroke-width="1"/></g><g transform="translate(-2213,-26)"><path d="M65,57Q65,737 213,693" stroke="#707070" stroke-width="1"/></g><g transform="translate(-2213,-26)"><path d="M65,57Q65,952 208,908" stroke="#707070" stroke-width="1"/></g><g transform="translate(-2431.554626464845,-26)"><path d="M284,57Q284,408 83,358" stroke="#707070" stroke-width="1"/></g><g transform="translate(-2315,-26)"><path d="M167,57Q167,1400 82,1350" stroke="#707070" stroke-width="1"/></g><g transform="translate(-2577.122497558595,-302.340026855469)"><path d="M429,333Q429,-26 75,18" stroke="#707070" stroke-width="1"/></g><g transform="translate(-2213,-538.4541015625023)"><path d="M65,569Q65,-26 150,18" stroke="#707070" stroke-width="1"/></g><g transform="translate(-2213,-268.4541015625023)"><path d="M65,299Q65,-26 150,18" stroke="#707070" stroke-width="1"/></g><g transform="translate(-2063,-418.4873046875025)"><path d="M38,168Q38,-12 179,32" stroke="#707070" stroke-width="1"/></g><g transform="translate(-2063,-356.2968750000025)"><path d="M38,106Q38,8 384,50" stroke="#707070" stroke-width="1"/></g><g transform="translate(-2063,-268.4541015625023)"><path d="M38,18Q38,116 237,74" stroke="#707070" stroke-width="1"/></g><g transform="translate(-2063,-268.4541015625023)"><path d="M38,18Q38,211 103,166" stroke="#707070" stroke-width="1"/></g><g transform="translate(-2063,187.7880859374966)"><path d="M37,156Q37,6 122,50" stroke="#707070" stroke-width="1"/></g><g transform="translate(-1940.600585937501,12.177734374995453)"><path d="M66,226Q66,-58 179,41" stroke="#707070" stroke-width="1"/></g><g transform="translate(-1940.600585937501,170.86914062499523)"><path d="M122,67Q122,41 231,41" stroke="#707070" stroke-width="1"/></g><g transform="translate(-2063,325.5458984374977)"><path d="M37,18Q37,162 94,128" stroke="#707070" stroke-width="1"/></g><g transform="translate(-1969,359.8710937499952)"><path d="M42,94Q42,49 153,68" stroke="#707070" stroke-width="1"/></g><g transform="translate(-2515.554626464845,93.9843749999975)"><path d="M126,238Q126,-20 64,14" stroke="#707070" stroke-width="1"/></g><g transform="translate(-2686.554626464845,35.9843749999975)"><path d="M203,72Q203,2 151,32" stroke="#707070" stroke-width="1"/></g><g transform="translate(-2693.0575561523447,93.9843749999975)"><path d="M209,14Q209,170 155,136" stroke="#707070" stroke-width="1"/></g><g transform="translate(-2684.42858886719,310.65917968749727)"><path d="M294,21Q294,313 118,279" stroke="#707070" stroke-width="1"/></g><g transform="translate(-3252.4968872070335,339.6259765624957)"><path d="M627,250Q627,-19 82,14" stroke="#707070" stroke-width="1"/></g><g transform="translate(-3200.6170043945335,419.64648437499613)"><path d="M576,170Q576,-19 99,14" stroke="#707070" stroke-width="1"/></g><g transform="translate(-3118.219543457034,495.9404296874959)"><path d="M493,94Q493,-20 65,14" stroke="#707070" stroke-width="1"/></g><g transform="translate(-3063.287902832034,543.9404296874959)"><path d="M438,46Q438,-10 63,14" stroke="#707070" stroke-width="1"/></g><g transform="translate(-3109.323059082034,575.9843749999975)"><path d="M484,14Q484,95 141,61" stroke="#707070" stroke-width="1"/></g><g transform="translate(-3082.478332519534,575.9843749999975)"><path d="M457,14Q457,175 105,141" stroke="#707070" stroke-width="1"/></g><g transform="translate(-3081.598449707034,575.9843749999975)"><path d="M457,14Q457,232 75,198" stroke="#707070" stroke-width="1"/></g><g transform="translate(-3090.753723144534,575.9843749999975)"><path d="M466,14Q466,288 86,254" stroke="#707070" stroke-width="1"/></g><g transform="translate(-2947.321105957034,575.9843749999975)"><path d="M322,14Q322,332 115,298" stroke="#707070" stroke-width="1"/></g><g transform="translate(-2805.42858886719,575.9843749999975)"><path d="M180,14Q180,385 101,351" stroke="#707070" stroke-width="1"/></g><g transform="translate(-2419,1097.6591796874973)"><path d="M145,226Q145,-19 84,14" stroke="#707070" stroke-width="1"/></g><g transform="translate(-2431,1302.6591796874973)"><path d="M157,21Q157,268 96,234" stroke="#707070" stroke-width="1"/></g><g transform="translate(-2512,1423.6591796874973)"><path d="M129,113Q129,-19 61,14" stroke="#707070" stroke-width="1"/></g><g transform="translate(-2649,1363.6591796874973)"><path d="M168,74Q168,1 117,32" stroke="#707070" stroke-width="1"/></g><g transform="translate(-2675,1423.6591796874973)"><path d="M194,14Q194,88 143,56" stroke="#707070" stroke-width="1"/></g><g transform="translate(-2487,1000.6591796874973)"><path d="M110,111Q110,-19 48,14" stroke="#707070" stroke-width="1"/></g><g transform="translate(-2656,973.6591796874973)"><path d="M179,41L149,41" stroke="#707070" stroke-width="1"/></g><g transform="translate(-2603,1522.6591796874973)"><path d="M220,14Q220,102 152,68" stroke="#707070" stroke-width="1"/></g><g transform="translate(-2595,1097.6591796874973)"><path d="M218,14Q218,146 156,112" stroke="#707070" stroke-width="1"/></g><g transform="translate(-2771,1075.6591796874973)"><path d="M254,134Q254,8 156,41" stroke="#707070" stroke-width="1"/></g><g transform="translate(-2754,1177.6591796874973)"><path d="M169,32Q169,41 139,41" stroke="#707070" stroke-width="1"/></g><g transform="translate(-2752,1195.6591796874973)"><path d="M235,14Q235,150 137,116" stroke="#707070" stroke-width="1"/></g><g transform="translate(-2634.122497558595,-472.340026855469)"><path d="M94,188Q94,-19 37,14" stroke="#707070" stroke-width="1"/></g><g transform="translate(-2815.2631225585947,-673.8947143554688)"><path d="M199,216Q199,-2 153,32" stroke="#707070" stroke-width="1"/></g><g transform="translate(-2943.3851928710947,-572.0831909179688)"><path d="M327,114Q327,-2 156,32" stroke="#707070" stroke-width="1"/></g><g transform="translate(-2924.5667724609393,-302.340026855469)"><path d="M385,18Q385,238 108,204" stroke="#707070" stroke-width="1"/></g><g transform="translate(-2859.1947631835947,-472.340026855469)"><path d="M243,14Q243,112 142,78" stroke="#707070" stroke-width="1"/></g><g transform="translate(-3237.7317504882835,-398.4962768554693)"><path d="M367,300Q367,-1 156,32" stroke="#707070" stroke-width="1"/></g><g transform="translate(-3420.992492675783,-291.68475341796943)"><path d="M550,194Q550,-2 147,32" stroke="#707070" stroke-width="1"/></g><g transform="translate(-3548.062805175783,-151.30389404296966)"><path d="M633,53Q633,32 152,32" stroke="#707070" stroke-width="1"/></g><g transform="translate(-3540.959289550783,-112.19647216796875)"><path d="M670,14Q670,119 151,85" stroke="#707070" stroke-width="1"/></g><g transform="translate(-3536.062805175783,-112.19647216796875)"><path d="M665,14Q665,216 140,182" stroke="#707070" stroke-width="1"/></g><g transform="translate(-3531.804016113283,-112.19647216796875)"><path d="M661,14Q661,309 151,275" stroke="#707070" stroke-width="1"/></g><g transform="translate(-2063,-623.903320312502)"><path d="M38,104Q38,-20 96,14" stroke="#707070" stroke-width="1"/></g><g transform="translate(-1967,-773.4394531250019)"><path d="M40,163Q40,-10 99,23" stroke="#707070" stroke-width="1"/></g><g transform="translate(-1967,-658.903320312502)"><path d="M40,49Q40,-12 99,14" stroke="#707070" stroke-width="1"/></g><g transform="translate(-1967,-623.903320312502)"><path d="M40,14Q40,68 99,45" stroke="#707070" stroke-width="1"/></g><g transform="translate(-1967,-623.903320312502)"><path d="M40,14Q40,161 152,127" stroke="#707070" stroke-width="1"/></g><g transform="translate(-2000,590.6874999999995)"><path d="M64,76Q64,77 94,77" stroke="#707070" stroke-width="1"/></g><g transform="translate(-2004.8125000000002,764.6874999999995)"><path d="M66,117L96,117" stroke="#707070" stroke-width="1"/></g><g transform="translate(-2213 -26)"><rect x="0" y="0" width="130" height="114" rx="10" ry="10" style="fill:#22AAE0;stroke:#707070;stroke-width:1px;"/><text font-family="NotoSans, Arial, sans-serif" font-size="69" font-weight="bold" lengthAdjust="spacingAndGlyphs" style="fill:#4F4F4F;"><tspan y="74" x="65" text-anchor="middle" textLength="120">IOS</tspan></text></g><g transform="translate(-2063 325.5458984374977)"><rect x="0" y="0" width="74" height="37" rx="10" ry="10" style="fill:#339966;stroke:#707070;stroke-width:1px;"/><text font-family="NotoSans, Arial, sans-serif" font-size="18" font-weight="bold" lengthAdjust="spacingAndGlyphs" style="fill:#4F4F4F;"><tspan y="23" x="37" text-anchor="middle" textLength="64">Topic B</tspan></text></g><g transform="translate(-2000 648.6874999999995)"><rect x="0" y="0" width="74" height="37" rx="10" ry="10" style="fill:#339966;stroke:#707070;stroke-width:1px;"/><text font-family="NotoSans, Arial, sans-serif" font-size="18" font-weight="bold" lengthAdjust="spacingAndGlyphs" style="fill:#4F4F4F;"><tspan y="23" x="37" text-anchor="middle" textLength="64">Topic C</tspan></text></g><g transform="translate(-2004.8125000000002 863.6874999999995)"><rect x="0" y="0" width="76" height="37" rx="10" ry="10" style="fill:#339966;stroke:#707070;stroke-width:1px;"/><text font-family="NotoSans, Arial, sans-serif" font-size="18" font-weight="bold" lengthAdjust="spacingAndGlyphs" style="fill:#4F4F4F;"><tspan y="23" x="38" text-anchor="middle" textLength="66">Topic D</tspan></text></g><g transform="translate(-2431.554626464845 310.65917968749727)"><rect x="0" y="0" width="83" height="42" rx="10" ry="10" style="fill:#339966;stroke:#707070;stroke-width:1px;"/><text font-family="NotoSans, Arial, sans-serif" font-size="21" font-weight="bold" lengthAdjust="spacingAndGlyphs" style="fill:#4F4F4F;"><tspan y="26" x="42" text-anchor="middle" textLength="73">Topic E</tspan></text></g><g transform="translate(-2315 1302.6591796874973)"><rect x="0" y="0" width="82" height="42" rx="10" ry="10" style="fill:#339966;stroke:#707070;stroke-width:1px;"/><text font-family="NotoSans, Arial, sans-serif" font-size="21" font-weight="bold" lengthAdjust="spacingAndGlyphs" style="fill:#4F4F4F;"><tspan y="26" x="41" text-anchor="middle" textLength="72">Topic F</tspan></text></g><g transform="translate(-2577.122497558595 -302.340026855469)"><rect x="0" y="0" width="75" height="37" rx="10" ry="10" style="fill:#339966;stroke:#707070;stroke-width:1px;"/><text font-family="NotoSans, Arial, sans-serif" font-size="18" font-weight="bold" lengthAdjust="spacingAndGlyphs" style="fill:#4F4F4F;"><tspan y="23" x="38" text-anchor="middle" textLength="65">Topic G</tspan></text></g><g transform="translate(-2063 -538.4541015625023)"><rect x="0" y="0" width="76" height="37" rx="10" ry="10" style="fill:#339966;stroke:#707070;stroke-width:1px;"/><text font-family="NotoSans, Arial, sans-serif" font-size="18" font-weight="bold" lengthAdjust="spacingAndGlyphs" style="fill:#4F4F4F;"><tspan y="23" x="38" text-anchor="middle" textLength="66">Topic H</tspan></text></g><g transform="translate(-2063 -268.4541015625023)"><rect x="0" y="0" width="75" height="37" rx="10" ry="10" style="fill:#339966;stroke:#707070;stroke-width:1px;"/><text font-family="NotoSans, Arial, sans-serif" font-size="18" font-weight="bold" lengthAdjust="spacingAndGlyphs" style="fill:#4F4F4F;"><tspan y="23" x="38" text-anchor="middle" textLength="65">Topic A</tspan></text></g><g transform="translate(-1883.755798339846 -418.4873046875025)"><rect x="0" y="0" width="115" height="64" rx="10" ry="10" style="fill:#E0E0E0;stroke:#707070;stroke-width:1px;"/><text font-family="NotoSans, Arial, sans-serif" font-size="12" font-weight="bold" lengthAdjust="spacingAndGlyphs" style="fill:#4F4F4F;"><tspan y="17" x="58" text-anchor="middle" textLength="88">iOS is a mobile</tspan><tspan y="35" x="58" text-anchor="middle" textLength="105">operating system</tspan><tspan y="53" x="58" text-anchor="middle" textLength="101">created by Apple</tspan></text></g><g transform="translate(-1679.288024902346 -356.2968750000025)"><rect x="0" y="0" width="150" height="100" rx="10" ry="10" style="fill:#E0E0E0;stroke:#707070;stroke-width:1px;"/><text font-family="NotoSans, Arial, sans-serif" font-size="12" font-weight="bold" lengthAdjust="spacingAndGlyphs" style="fill:#4F4F4F;"><tspan y="17" x="75" text-anchor="middle" textLength="109">It is the operating</tspan><tspan y="35" x="75" text-anchor="middle" textLength="119">system that powers</tspan><tspan y="53" x="75" text-anchor="middle" textLength="140">many of Apple&#x27;s mobile</tspan><tspan y="71" x="75" text-anchor="middle" textLength="127">devices including the</tspan><tspan y="89" x="75" text-anchor="middle" textLength="137">iPhone, iPad, and iPod.</tspan></text></g><g transform="translate(-1825.772399902346 -226.01953125000273)"><rect x="0" y="0" width="122" height="64" rx="10" ry="10" style="fill:#E0E0E0;stroke:#707070;stroke-width:1px;"/><text font-family="NotoSans, Arial, sans-serif" font-size="12" font-weight="bold" lengthAdjust="spacingAndGlyphs" style="fill:#4F4F4F;"><tspan y="17" x="61" text-anchor="middle" textLength="101">Updates: various</tspan><tspan y="35" x="61" text-anchor="middle" textLength="112">versions of iOS are</tspan><tspan y="53" x="61" text-anchor="middle" textLength="107">released annually</tspan></text></g><g transform="translate(-1960.049743652346 -133.51855468750273)"><rect x="0" y="0" width="148" height="64" rx="10" ry="10" style="fill:#E0E0E0;stroke:#707070;stroke-width:1px;"/><text font-family="NotoSans, Arial, sans-serif" font-size="12" font-weight="bold" lengthAdjust="spacingAndGlyphs" style="fill:#4F4F4F;"><tspan y="17" x="74" text-anchor="middle" textLength="120">Hardware: the main</tspan><tspan y="35" x="74" text-anchor="middle" textLength="138">hardware for the iOS is</tspan><tspan y="53" x="74" text-anchor="middle" textLength="109">ARM architecture.</tspan></text></g><g transform="translate(-1940.600585937501 187.7880859374966)"><rect x="0" y="0" width="132" height="100" rx="10" ry="10" style="fill:#FFFF00;stroke:#707070;stroke-width:1px;"/><text font-family="NotoSans, Arial, sans-serif" font-size="12" font-weight="bold" lengthAdjust="spacingAndGlyphs" style="fill:#4F4F4F;"><tspan y="17" x="66" text-anchor="middle" textLength="122">The user interface is</tspan><tspan y="35" x="66" text-anchor="middle" textLength="108">based upon direct</tspan><tspan y="53" x="66" text-anchor="middle" textLength="120">manipulation of the</tspan><tspan y="71" x="66" text-anchor="middle" textLength="115">screen using multi-</tspan><tspan y="89" x="66" text-anchor="middle" textLength="94">touch gestures.</tspan></text></g><g transform="translate(-1761.685485839846 12.177734374995453)"><rect x="0" y="0" width="131" height="82" rx="10" ry="10" style="fill:#E0E0E0;stroke:#707070;stroke-width:1px;"/><text font-family="NotoSans, Arial, sans-serif" font-size="12" font-weight="bold" lengthAdjust="spacingAndGlyphs" style="fill:#4F4F4F;"><tspan y="17" x="66" text-anchor="middle" textLength="104">Gestures include:</tspan><tspan y="35" x="66" text-anchor="middle" textLength="108">sliders, switchers,</tspan><tspan y="53" x="66" text-anchor="middle" textLength="119">buttons, swipe, tap,</tspan><tspan y="71" x="66" text-anchor="middle" textLength="121">pinch, reverse pinch</tspan></text></g><g transform="translate(-1709.805603027346 170.86914062499523)"><rect x="0" y="0" width="149" height="82" rx="10" ry="10" style="fill:#E0E0E0;stroke:#707070;stroke-width:1px;"/><text font-family="NotoSans, Arial, sans-serif" font-size="12" font-weight="bold" lengthAdjust="spacingAndGlyphs" style="fill:#4F4F4F;"><tspan y="17" x="75" text-anchor="middle" textLength="116">Such gestures each</tspan><tspan y="35" x="75" text-anchor="middle" textLength="139">have specific definition</tspan><tspan y="53" x="75" text-anchor="middle" textLength="125">within the operating</tspan><tspan y="71" x="75" text-anchor="middle" textLength="47">system.</tspan></text></g><g transform="translate(-1969 439.5458984374977)"><rect x="0" y="0" width="84" height="28" rx="10" ry="10" style="fill:#FFFF00;stroke:#707070;stroke-width:1px;"/><text font-family="NotoSans, Arial, sans-serif" font-size="12" font-weight="bold" lengthAdjust="spacingAndGlyphs" style="fill:#4F4F4F;"><tspan y="17" x="42" text-anchor="middle" textLength="74">Accessibility</tspan></text></g><g transform="translate(-1815.927673339846 359.8710937499952)"><rect x="0" y="0" width="142" height="136" rx="10" ry="10" style="fill:#E0E0E0;stroke:#707070;stroke-width:1px;"/><text font-family="NotoSans, Arial, sans-serif" font-size="12" font-weight="bold" lengthAdjust="spacingAndGlyphs" style="fill:#4F4F4F;"><tspan y="17" x="71" text-anchor="middle" textLength="117">There are functions</tspan><tspan y="35" x="71" text-anchor="middle" textLength="125">within the operating</tspan><tspan y="53" x="71" text-anchor="middle" textLength="116">system that enable</tspan><tspan y="71" x="71" text-anchor="middle" textLength="127">users with vision and</tspan><tspan y="89" x="71" text-anchor="middle" textLength="131">hearing disabilities to</tspan><tspan y="107" x="71" text-anchor="middle" textLength="132">still be able to use the</tspan><tspan y="125" x="71" text-anchor="middle" textLength="105">operating system</tspan></text></g><g transform="translate(-2515.554626464845 93.9843749999975)"><rect x="0" y="0" width="64" height="28" rx="10" ry="10" style="fill:#FFFF00;stroke:#707070;stroke-width:1px;"/><text font-family="NotoSans, Arial, sans-serif" font-size="12" font-weight="bold" lengthAdjust="spacingAndGlyphs" style="fill:#4F4F4F;"><tspan y="17" x="32" text-anchor="middle" textLength="54">Updates:</tspan></text></g><g transform="translate(-2686.554626464845 35.9843749999975)"><rect x="0" y="0" width="151" height="64" rx="10" ry="10" style="fill:#666699;stroke:#707070;stroke-width:1px;"/><text font-family="NotoSans, Arial, sans-serif" font-size="12" font-weight="bold" lengthAdjust="spacingAndGlyphs" style="fill:#4F4F4F;"><tspan y="17" x="76" text-anchor="middle" textLength="141">Apple provides updates</tspan><tspan y="35" x="76" text-anchor="middle" textLength="122">to the iOS operating</tspan><tspan y="53" x="76" text-anchor="middle" textLength="99">system annually</tspan></text></g><g transform="translate(-2693.0575561523447 180.44042968749886)"><rect x="0" y="0" width="155" height="100" rx="10" ry="10" style="fill:#666699;stroke:#707070;stroke-width:1px;"/><text font-family="NotoSans, Arial, sans-serif" font-size="12" font-weight="bold" lengthAdjust="spacingAndGlyphs" style="fill:#4F4F4F;"><tspan y="17" x="78" text-anchor="middle" textLength="145">The most recent version</tspan><tspan y="35" x="78" text-anchor="middle" textLength="102">is iOS 12 which is</tspan><tspan y="53" x="78" text-anchor="middle" textLength="137">available for iPhone 5S</tspan><tspan y="71" x="78" text-anchor="middle" textLength="90">users and later</tspan><tspan y="89" x="78" text-anchor="middle" textLength="76">generations.</tspan></text></g><g transform="translate(-2684.42858886719 575.9843749999975)"><rect x="0" y="0" width="118" height="28" rx="10" ry="10" style="fill:#FFFF00;stroke:#707070;stroke-width:1px;"/><text font-family="NotoSans, Arial, sans-serif" font-size="12" font-weight="bold" lengthAdjust="spacingAndGlyphs" style="fill:#4F4F4F;"><tspan y="17" x="59" text-anchor="middle" textLength="108">Security Features:</tspan></text></g><g transform="translate(-3252.4968872070335 339.6259765624957)"><rect x="0" y="0" width="82" height="28" rx="10" ry="10" style="fill:#E0E0E0;stroke:#707070;stroke-width:1px;"/><text font-family="NotoSans, Arial, sans-serif" font-size="12" font-weight="bold" lengthAdjust="spacingAndGlyphs" style="fill:#4F4F4F;"><tspan y="17" x="41" text-anchor="middle" textLength="72">Secure Boot</tspan></text></g><g transform="translate(-3200.6170043945335 419.64648437499613)"><rect x="0" y="0" width="99" height="28" rx="10" ry="10" style="fill:#E0E0E0;stroke:#707070;stroke-width:1px;"/><text font-family="NotoSans, Arial, sans-serif" font-size="12" font-weight="bold" lengthAdjust="spacingAndGlyphs" style="fill:#4F4F4F;"><tspan y="17" x="50" text-anchor="middle" textLength="89">Secure Enclave</tspan></text></g><g transform="translate(-3118.219543457034 495.9404296874959)"><rect x="0" y="0" width="65" height="28" rx="10" ry="10" style="fill:#E0E0E0;stroke:#707070;stroke-width:1px;"/><text font-family="NotoSans, Arial, sans-serif" font-size="12" font-weight="bold" lengthAdjust="spacingAndGlyphs" style="fill:#4F4F4F;"><tspan y="17" x="33" text-anchor="middle" textLength="55">Passcode</tspan></text></g><g transform="translate(-3063.287902832034 543.9404296874959)"><rect x="0" y="0" width="63" height="28" rx="10" ry="10" style="fill:#E0E0E0;stroke:#707070;stroke-width:1px;"/><text font-family="NotoSans, Arial, sans-serif" font-size="12" font-weight="bold" lengthAdjust="spacingAndGlyphs" style="fill:#4F4F4F;"><tspan y="17" x="32" text-anchor="middle" textLength="53">Touch ID</tspan></text></g><g transform="translate(-3109.323059082034 614.0107421874957)"><rect x="0" y="0" width="141" height="46" rx="10" ry="10" style="fill:#E0E0E0;stroke:#707070;stroke-width:1px;"/><text font-family="NotoSans, Arial, sans-serif" font-size="12" font-weight="bold" lengthAdjust="spacingAndGlyphs" style="fill:#4F4F4F;"><tspan y="17" x="71" text-anchor="middle" textLength="131">Address Space Layout</tspan><tspan y="35" x="71" text-anchor="middle" textLength="91">Randomization</tspan></text></g><g transform="translate(-3082.478332519534 694.3046874999957)"><rect x="0" y="0" width="105" height="46" rx="10" ry="10" style="fill:#E0E0E0;stroke:#707070;stroke-width:1px;"/><text font-family="NotoSans, Arial, sans-serif" font-size="12" font-weight="bold" lengthAdjust="spacingAndGlyphs" style="fill:#4F4F4F;"><tspan y="17" x="53" text-anchor="middle" textLength="95">Non-Executable</tspan><tspan y="35" x="53" text-anchor="middle" textLength="50">Memory</tspan></text></g><g transform="translate(-3081.598449707034 760.3046874999957)"><rect x="0" y="0" width="75" height="28" rx="10" ry="10" style="fill:#E0E0E0;stroke:#707070;stroke-width:1px;"/><text font-family="NotoSans, Arial, sans-serif" font-size="12" font-weight="bold" lengthAdjust="spacingAndGlyphs" style="fill:#4F4F4F;"><tspan y="17" x="38" text-anchor="middle" textLength="65">Encryption</tspan></text></g><g transform="translate(-3090.753723144534 815.6337890624957)"><rect x="0" y="0" width="86" height="28" rx="10" ry="10" style="fill:#E0E0E0;stroke:#707070;stroke-width:1px;"/><text font-family="NotoSans, Arial, sans-serif" font-size="12" font-weight="bold" lengthAdjust="spacingAndGlyphs" style="fill:#4F4F4F;"><tspan y="17" x="43" text-anchor="middle" textLength="76">App Security</tspan></text></g><g transform="translate(-2947.321105957034 859.6337890624957)"><rect x="0" y="0" width="115" height="28" rx="10" ry="10" style="fill:#E0E0E0;stroke:#707070;stroke-width:1px;"/><text font-family="NotoSans, Arial, sans-serif" font-size="12" font-weight="bold" lengthAdjust="spacingAndGlyphs" style="fill:#4F4F4F;"><tspan y="17" x="58" text-anchor="middle" textLength="105">Network Security</tspan></text></g><g transform="translate(-2805.42858886719 903.6337890624957)"><rect x="0" y="0" width="101" height="46" rx="10" ry="10" style="fill:#E0E0E0;stroke:#707070;stroke-width:1px;"/><text font-family="NotoSans, Arial, sans-serif" font-size="12" font-weight="bold" lengthAdjust="spacingAndGlyphs" style="fill:#4F4F4F;"><tspan y="17" x="51" text-anchor="middle" textLength="67">Two-Factor</tspan><tspan y="35" x="51" text-anchor="middle" textLength="91">Authentication</tspan></text></g><g transform="translate(-2419 1097.6591796874973)"><rect x="0" y="0" width="84" height="28" rx="10" ry="10" style="fill:#FFFF00;stroke:#707070;stroke-width:1px;"/><text font-family="NotoSans, Arial, sans-serif" font-size="12" font-weight="bold" lengthAdjust="spacingAndGlyphs" style="fill:#4F4F4F;"><tspan y="17" x="42" text-anchor="middle" textLength="74">File Systems</tspan></text></g><g transform="translate(-2431 1522.6591796874973)"><rect x="0" y="0" width="96" height="28" rx="10" ry="10" style="fill:#FFFF00;stroke:#707070;stroke-width:1px;"/><text font-family="NotoSans, Arial, sans-serif" font-size="12" font-weight="bold" lengthAdjust="spacingAndGlyphs" style="fill:#4F4F4F;"><tspan y="17" x="48" text-anchor="middle" textLength="86">User Accounts</tspan></text></g><g transform="translate(-2512 1423.6591796874973)"><rect x="0" y="0" width="61" height="28" rx="10" ry="10" style="fill:#666699;stroke:#707070;stroke-width:1px;"/><text font-family="NotoSans, Arial, sans-serif" font-size="12" font-weight="bold" lengthAdjust="spacingAndGlyphs" style="fill:#4F4F4F;"><tspan y="17" x="31" text-anchor="middle" textLength="51">Apple ID</tspan></text></g><g transform="translate(-2649 1363.6591796874973)"><rect x="0" y="0" width="117" height="64" rx="10" ry="10" style="fill:#E0E0E0;stroke:#707070;stroke-width:1px;"/><text font-family="NotoSans, Arial, sans-serif" font-size="12" font-weight="bold" lengthAdjust="spacingAndGlyphs" style="fill:#4F4F4F;"><tspan y="17" x="59" text-anchor="middle" textLength="107">contains personal</tspan><tspan y="35" x="59" text-anchor="middle" textLength="99">information and</tspan><tspan y="53" x="59" text-anchor="middle" textLength="49">settings</tspan></text></g><g transform="translate(-2675 1447.6591796874973)"><rect x="0" y="0" width="143" height="64" rx="10" ry="10" style="fill:#E0E0E0;stroke:#707070;stroke-width:1px;"/><text font-family="NotoSans, Arial, sans-serif" font-size="12" font-weight="bold" lengthAdjust="spacingAndGlyphs" style="fill:#4F4F4F;"><tspan y="17" x="72" text-anchor="middle" textLength="133">created free of charge</tspan><tspan y="35" x="72" text-anchor="middle" textLength="107">with a valid email</tspan><tspan y="53" x="72" text-anchor="middle" textLength="126">adress and password</tspan></text></g><g transform="translate(-2487 1000.6591796874973)"><rect x="0" y="0" width="48" height="28" rx="10" ry="10" style="fill:#666699;stroke:#707070;stroke-width:1px;"/><text font-family="NotoSans, Arial, sans-serif" font-size="12" font-weight="bold" lengthAdjust="spacingAndGlyphs" style="fill:#4F4F4F;"><tspan y="17" x="24" text-anchor="middle" textLength="38">iCloud</tspan></text></g><g transform="translate(-2656 973.6591796874973)"><rect x="0" y="0" width="149" height="82" rx="10" ry="10" style="fill:#E0E0E0;stroke:#707070;stroke-width:1px;"/><text font-family="NotoSans, Arial, sans-serif" font-size="12" font-weight="bold" lengthAdjust="spacingAndGlyphs" style="fill:#4F4F4F;"><tspan y="17" x="75" text-anchor="middle" textLength="124">allows users to store</tspan><tspan y="35" x="75" text-anchor="middle" textLength="136">data for music and iOS</tspan><tspan y="53" x="75" text-anchor="middle" textLength="139">applications on remote</tspan><tspan y="71" x="75" text-anchor="middle" textLength="106">computer servers</tspan></text></g><g transform="translate(-2603 1531.6591796874973)"><rect x="0" y="0" width="152" height="118" rx="10" ry="10" style="fill:#666699;stroke:#707070;stroke-width:1px;"/><text font-family="NotoSans, Arial, sans-serif" font-size="12" font-weight="bold" lengthAdjust="spacingAndGlyphs" style="fill:#4F4F4F;"><tspan y="17" x="76" text-anchor="middle" textLength="139">Multiple User Accounts</tspan><tspan y="35" x="76" text-anchor="middle" textLength="105">are not available.</tspan><tspan y="53" x="76" text-anchor="middle" textLength="107">However, one can</tspan><tspan y="71" x="76" text-anchor="middle" textLength="138">change the settings on</tspan><tspan y="89" x="76" text-anchor="middle" textLength="142">a device by logging into</tspan><tspan y="107" x="76" text-anchor="middle" textLength="105">another applie ID</tspan></text></g><g transform="translate(-2595 1195.6591796874973)"><rect x="0" y="0" width="156" height="28" rx="10" ry="10" style="fill:#666699;stroke:#707070;stroke-width:1px;"/><text font-family="NotoSans, Arial, sans-serif" font-size="12" font-weight="bold" lengthAdjust="spacingAndGlyphs" style="fill:#4F4F4F;"><tspan y="17" x="78" text-anchor="middle" textLength="146">Apple File System (APFS)</tspan></text></g><g transform="translate(-2771 1075.6591796874973)"><rect x="0" y="0" width="156" height="82" rx="10" ry="10" style="fill:#E0E0E0;stroke:#707070;stroke-width:1px;"/><text font-family="NotoSans, Arial, sans-serif" font-size="12" font-weight="bold" lengthAdjust="spacingAndGlyphs" style="fill:#4F4F4F;"><tspan y="17" x="78" text-anchor="middle" textLength="139">optimized for flash and</tspan><tspan y="35" x="78" text-anchor="middle" textLength="146">solid-state drive storage</tspan><tspan y="53" x="78" text-anchor="middle" textLength="143">with a primary focus on</tspan><tspan y="71" x="78" text-anchor="middle" textLength="66">encryption</tspan></text></g><g transform="translate(-2754 1177.6591796874973)"><rect x="0" y="0" width="139" height="82" rx="10" ry="10" style="fill:#E0E0E0;stroke:#707070;stroke-width:1px;"/><text font-family="NotoSans, Arial, sans-serif" font-size="12" font-weight="bold" lengthAdjust="spacingAndGlyphs" style="fill:#4F4F4F;"><tspan y="17" x="70" text-anchor="middle" textLength="128">supports 64-bit inode</tspan><tspan y="35" x="70" text-anchor="middle" textLength="127">numbers, supporting</tspan><tspan y="53" x="70" text-anchor="middle" textLength="129">over 9 Quintilian files</tspan><tspan y="71" x="70" text-anchor="middle" textLength="113">on a single volume</tspan></text></g><g transform="translate(-2752 1279.6591796874973)"><rect x="0" y="0" width="137" height="64" rx="10" ry="10" style="fill:#E0E0E0;stroke:#707070;stroke-width:1px;"/><text font-family="NotoSans, Arial, sans-serif" font-size="12" font-weight="bold" lengthAdjust="spacingAndGlyphs" style="fill:#4F4F4F;"><tspan y="17" x="69" text-anchor="middle" textLength="107">designed to avoid</tspan><tspan y="35" x="69" text-anchor="middle" textLength="127">corruption caused by</tspan><tspan y="53" x="69" text-anchor="middle" textLength="92">system crashes</tspan></text></g><g transform="translate(-2634.122497558595 -472.340026855469)"><rect x="0" y="0" width="37" height="28" rx="10" ry="10" style="fill:#FFFF00;stroke:#707070;stroke-width:1px;"/><text font-family="NotoSans, Arial, sans-serif" font-size="12" font-weight="bold" lengthAdjust="spacingAndGlyphs" style="fill:#4F4F4F;"><tspan y="17" x="19" text-anchor="middle" textLength="27">Pros</tspan></text></g><g transform="translate(-2815.2631225585947 -673.8947143554688)"><rect x="0" y="0" width="153" height="64" rx="10" ry="10" style="fill:#E0E0E0;stroke:#707070;stroke-width:1px;"/><text font-family="NotoSans, Arial, sans-serif" font-size="12" font-weight="bold" lengthAdjust="spacingAndGlyphs" style="fill:#4F4F4F;"><tspan y="17" x="77" text-anchor="middle" textLength="143">Less chance of malware</tspan><tspan y="35" x="77" text-anchor="middle" textLength="121">due to high levels of</tspan><tspan y="53" x="77" text-anchor="middle" textLength="49">security</tspan></text></g><g transform="translate(-2943.3851928710947 -572.0831909179688)"><rect x="0" y="0" width="156" height="64" rx="10" ry="10" style="fill:#E0E0E0;stroke:#707070;stroke-width:1px;"/><text font-family="NotoSans, Arial, sans-serif" font-size="12" font-weight="bold" lengthAdjust="spacingAndGlyphs" style="fill:#4F4F4F;"><tspan y="17" x="78" text-anchor="middle" textLength="116">both hardware and</tspan><tspan y="35" x="78" text-anchor="middle" textLength="146">software controlled by a</tspan><tspan y="53" x="78" text-anchor="middle" textLength="94">single company</tspan></text></g><g transform="translate(-2924.5667724609393 -112.19647216796875)"><rect x="0" y="0" width="108" height="28" rx="10" ry="10" style="fill:#FFFF00;stroke:#707070;stroke-width:1px;"/><text font-family="NotoSans, Arial, sans-serif" font-size="12" font-weight="bold" lengthAdjust="spacingAndGlyphs" style="fill:#4F4F4F;"><tspan y="17" x="54" text-anchor="middle" textLength="98">Special Features</tspan></text></g><g transform="translate(-2859.1947631835947 -417.358581542969)"><rect x="0" y="0" width="142" height="46" rx="10" ry="10" style="fill:#E0E0E0;stroke:#707070;stroke-width:1px;"/><text font-family="NotoSans, Arial, sans-serif" font-size="12" font-weight="bold" lengthAdjust="spacingAndGlyphs" style="fill:#4F4F4F;"><tspan y="17" x="71" text-anchor="middle" textLength="132">Timely and consistent</tspan><tspan y="35" x="71" text-anchor="middle" textLength="105">software updates</tspan></text></g><g transform="translate(-3237.7317504882835 -398.4962768554693)"><rect x="0" y="0" width="156" height="64" rx="10" ry="10" style="fill:#E0E0E0;stroke:#707070;stroke-width:1px;"/><text font-family="NotoSans, Arial, sans-serif" font-size="12" font-weight="bold" lengthAdjust="spacingAndGlyphs" style="fill:#4F4F4F;"><tspan y="17" x="78" text-anchor="middle" textLength="121">Folders, which store</tspan><tspan y="35" x="78" text-anchor="middle" textLength="146">multiple applications on</tspan><tspan y="53" x="78" text-anchor="middle" textLength="101">the home screen</tspan></text></g><g transform="translate(-3420.992492675783 -291.68475341796943)"><rect x="0" y="0" width="147" height="64" rx="10" ry="10" style="fill:#E0E0E0;stroke:#707070;stroke-width:1px;"/><text font-family="NotoSans, Arial, sans-serif" font-size="12" font-weight="bold" lengthAdjust="spacingAndGlyphs" style="fill:#4F4F4F;"><tspan y="17" x="74" text-anchor="middle" textLength="119">Notification Center,</tspan><tspan y="35" x="74" text-anchor="middle" textLength="131">allows users to view a</tspan><tspan y="53" x="74" text-anchor="middle" textLength="137">history of notifications</tspan></text></g><g transform="translate(-3548.062805175783 -151.30389404296966)"><rect x="0" y="0" width="152" height="64" rx="10" ry="10" style="fill:#E0E0E0;stroke:#707070;stroke-width:1px;"/><text font-family="NotoSans, Arial, sans-serif" font-size="12" font-weight="bold" lengthAdjust="spacingAndGlyphs" style="fill:#4F4F4F;"><tspan y="17" x="76" text-anchor="middle" textLength="119">Voiceover, for users</tspan><tspan y="35" x="76" text-anchor="middle" textLength="142">with vision and hearing</tspan><tspan y="53" x="76" text-anchor="middle" textLength="65">disabilities</tspan></text></g><g transform="translate(-3540.959289550783 -50.27264404296943)"><rect x="0" y="0" width="151" height="46" rx="10" ry="10" style="fill:#E0E0E0;stroke:#707070;stroke-width:1px;"/><text font-family="NotoSans, Arial, sans-serif" font-size="12" font-weight="bold" lengthAdjust="spacingAndGlyphs" style="fill:#4F4F4F;"><tspan y="17" x="76" text-anchor="middle" textLength="140">Siri, language interface</tspan><tspan y="35" x="76" text-anchor="middle" textLength="141">that answers questions</tspan></text></g><g transform="translate(-3536.062805175783 28.658996582030568)"><rect x="0" y="0" width="140" height="82" rx="10" ry="10" style="fill:#E0E0E0;stroke:#707070;stroke-width:1px;"/><text font-family="NotoSans, Arial, sans-serif" font-size="12" font-weight="bold" lengthAdjust="spacingAndGlyphs" style="fill:#4F4F4F;"><tspan y="17" x="70" text-anchor="middle" textLength="122">Multitasking, allows</tspan><tspan y="35" x="70" text-anchor="middle" textLength="130">users to interact with</tspan><tspan y="53" x="70" text-anchor="middle" textLength="89">more than one</tspan><tspan y="71" x="70" text-anchor="middle" textLength="125">application at a time</tspan></text></g><g transform="translate(-3531.804016113283 130.65899658203057)"><rect x="0" y="0" width="151" height="64" rx="10" ry="10" style="fill:#E0E0E0;stroke:#707070;stroke-width:1px;"/><text font-family="NotoSans, Arial, sans-serif" font-size="12" font-weight="bold" lengthAdjust="spacingAndGlyphs" style="fill:#4F4F4F;"><tspan y="17" x="76" text-anchor="middle" textLength="141">Game Center, an online</tspan><tspan y="35" x="76" text-anchor="middle" textLength="119">multiplayer gaming</tspan><tspan y="53" x="76" text-anchor="middle" textLength="51">network</tspan></text></g><g transform="translate(-1967 -623.903320312502)"><rect x="0" y="0" width="79" height="28" rx="10" ry="10" style="fill:#FFFF00;stroke:#707070;stroke-width:1px;"/><text font-family="NotoSans, Arial, sans-serif" font-size="12" font-weight="bold" lengthAdjust="spacingAndGlyphs" style="fill:#4F4F4F;"><tspan y="17" x="40" text-anchor="middle" textLength="69">Limitations</tspan></text></g><g transform="translate(-1868 -773.4394531250019)"><rect x="0" y="0" width="113" height="46" rx="10" ry="10" style="fill:#E0E0E0;stroke:#707070;stroke-width:1px;"/><text font-family="NotoSans, Arial, sans-serif" font-size="12" font-weight="bold" lengthAdjust="spacingAndGlyphs" style="fill:#4F4F4F;"><tspan y="17" x="57" text-anchor="middle" textLength="103">Customization of</tspan><tspan y="35" x="57" text-anchor="middle" textLength="101">iPhone is limited</tspan></text></g><g transform="translate(-1868 -658.903320312502)"><rect x="0" y="0" width="150" height="28" rx="10" ry="10" style="fill:#E0E0E0;stroke:#707070;stroke-width:1px;"/><text font-family="NotoSans, Arial, sans-serif" font-size="12" font-weight="bold" lengthAdjust="spacingAndGlyphs" style="fill:#4F4F4F;"><tspan y="17" x="75" text-anchor="middle" textLength="140">No expandable storage</tspan></text></g><g transform="translate(-1868 -610.903320312502)"><rect x="0" y="0" width="153" height="64" rx="10" ry="10" style="fill:#E0E0E0;stroke:#707070;stroke-width:1px;"/><text font-family="NotoSans, Arial, sans-serif" font-size="12" font-weight="bold" lengthAdjust="spacingAndGlyphs" style="fill:#4F4F4F;"><tspan y="17" x="77" text-anchor="middle" textLength="143">Battery life is smaller in</tspan><tspan y="35" x="77" text-anchor="middle" textLength="123">comparison to other</tspan><tspan y="53" x="77" text-anchor="middle" textLength="111">operating systems</tspan></text></g><g transform="translate(-1814.927673339846 -520.1435546875023)"><rect x="0" y="0" width="139" height="46" rx="10" ry="10" style="fill:#E0E0E0;stroke:#707070;stroke-width:1px;"/><text font-family="NotoSans, Arial, sans-serif" font-size="12" font-weight="bold" lengthAdjust="spacingAndGlyphs" style="fill:#4F4F4F;"><tspan y="17" x="70" text-anchor="middle" textLength="121">Price is expensive in</tspan><tspan y="35" x="70" text-anchor="middle" textLength="129">comparison to others</tspan></text></g><g transform="translate(-1906 590.6874999999995)"><rect x="0" y="0" width="368" height="154" rx="10" ry="10" style="fill:#FFFF00;stroke:#707070;stroke-width:1px;"/><text font-family="NotoSans, Arial, sans-serif" font-size="12" font-weight="bold" lengthAdjust="spacingAndGlyphs" style="fill:#4F4F4F;"><tspan y="17" x="184" text-anchor="middle" textLength="358">iPhone applications run in an event loop: When your iPhone</tspan><tspan y="35" x="184" text-anchor="middle" textLength="338">application launches, the program enters the event loop</tspan><tspan y="53" x="184" text-anchor="middle" textLength="320">and waits for a user touch event. When a touch event</tspan><tspan y="71" x="184" text-anchor="middle" textLength="338">happens, the Cocoa Touch framework detects the event,</tspan><tspan y="89" x="184" text-anchor="middle" textLength="331">creates an event object, and allocates and initializes an</tspan><tspan y="107" x="184" text-anchor="middle" textLength="294">autorelease pool. Cocoa Touch then invokes your</tspan><tspan y="125" x="184" text-anchor="middle" textLength="308">application event handler, making the event object</tspan><tspan y="143" x="184" text-anchor="middle" textLength="58">available.</tspan></text></g><g transform="translate(-1908.8125000000002 764.6874999999995)"><rect x="0" y="0" width="310" height="235" rx="10" ry="10" style="fill:#E0E0E0;stroke:#707070;stroke-width:1px;"/><image xlink:href="image1.png" x="5" y="5" width="300" height="225"/></g></g></svg>